<svg xmlns="http://www.w3.org/2000/svg" width="32" height="32" viewBox="0 0 32 32">
  <g id="Group_138" data-name="Group 138" transform="translate(-1516 -48)">
    <g id="Ellipse_31" data-name="Ellipse 31" transform="translate(1516 48)" fill="#fff" stroke="#5eb6e1" stroke-width="2">
      <circle cx="16" cy="16" r="16" stroke="none"/>
      <circle cx="16" cy="16" r="15" fill="none"/>
    </g>
    <path id="Icon_material-call" data-name="Icon material-call" d="M7.137,10.175a11.036,11.036,0,0,0,4.8,4.8l1.6-1.6a.724.724,0,0,1,.743-.175,8.31,8.31,0,0,0,2.6.415.731.731,0,0,1,.729.729v2.543a.731.731,0,0,1-.729.729A12.384,12.384,0,0,1,4.5,5.229.731.731,0,0,1,5.229,4.5h2.55a.731.731,0,0,1,.729.729,8.276,8.276,0,0,0,.415,2.6.731.731,0,0,1-.182.743Z" transform="translate(1520.5 52.5)" fill="#5eb6e1"/>
  </g>
</svg>
