<svg xmlns="http://www.w3.org/2000/svg" width="32" height="31" viewBox="0 0 32 31">
  <g id="Group_77" data-name="Group 77" transform="translate(-353 -8909)">
    <rect id="Rectangle_55" data-name="Rectangle 55" width="32" height="31" transform="translate(353 8909)" fill="#5eb6e1"/>
    <path id="Path_37" data-name="Path 37" d="M8.236,1.464a25.254,25.254,0,0,1,3.294.092,4.244,4.244,0,0,1,1.556.275,3.214,3.214,0,0,1,1.556,1.556,4.244,4.244,0,0,1,.275,1.556c0,.824.092,1.1.092,3.294a25.253,25.253,0,0,1-.092,3.294,4.244,4.244,0,0,1-.275,1.556,3.214,3.214,0,0,1-1.556,1.556,4.244,4.244,0,0,1-1.556.275c-.824,0-1.1.092-3.294.092a25.253,25.253,0,0,1-3.294-.092,4.244,4.244,0,0,1-1.556-.275A3.214,3.214,0,0,1,1.83,13.086a4.244,4.244,0,0,1-.275-1.556c0-.824-.092-1.1-.092-3.294a25.254,25.254,0,0,1,.092-3.294A4.244,4.244,0,0,1,1.83,3.386a3.287,3.287,0,0,1,.641-.915,1.547,1.547,0,0,1,.915-.641,4.244,4.244,0,0,1,1.556-.275,25.254,25.254,0,0,1,3.294-.092M8.236,0A27.039,27.039,0,0,0,4.85.092,5.65,5.65,0,0,0,2.837.458a3.582,3.582,0,0,0-1.464.915A3.582,3.582,0,0,0,.458,2.837,4.17,4.17,0,0,0,.092,4.85,27.039,27.039,0,0,0,0,8.236a27.039,27.039,0,0,0,.092,3.386,5.65,5.65,0,0,0,.366,2.013A3.582,3.582,0,0,0,1.373,15.1a3.582,3.582,0,0,0,1.464.915,5.65,5.65,0,0,0,2.013.366,27.04,27.04,0,0,0,3.386.092,27.04,27.04,0,0,0,3.386-.092,5.65,5.65,0,0,0,2.013-.366,3.839,3.839,0,0,0,2.379-2.379,5.65,5.65,0,0,0,.366-2.013c0-.915.092-1.19.092-3.386a27.04,27.04,0,0,0-.092-3.386,5.65,5.65,0,0,0-.366-2.013A3.582,3.582,0,0,0,15.1,1.373,3.582,3.582,0,0,0,13.635.458,5.65,5.65,0,0,0,11.622.092,27.039,27.039,0,0,0,8.236,0m0,4.027a4.142,4.142,0,0,0-4.21,4.21,4.21,4.21,0,1,0,4.21-4.21m0,6.955A2.7,2.7,0,0,1,5.491,8.236,2.7,2.7,0,0,1,8.236,5.491a2.7,2.7,0,0,1,2.745,2.745,2.7,2.7,0,0,1-2.745,2.745m4.393-8.145a1.007,1.007,0,1,0,1.007,1.007,1.016,1.016,0,0,0-1.007-1.007" transform="translate(361 8916)" fill="#fff" fill-rule="evenodd"/>
  </g>
</svg>
