<svg xmlns="http://www.w3.org/2000/svg" width="208" height="33" viewBox="0 0 208 33">
  <g id="Group_132" data-name="Group 132" transform="translate(-140 -9443.897)">
    <text id="BeStrong" transform="translate(199 9468.897)" fill="#fff" font-size="33" font-family="Helvetica-Bold, Helvetica" font-weight="700"><tspan x="0" y="0">Be</tspan><tspan y="0" fill="#00a2ff">Strong</tspan></text>
    <g id="Group_131" data-name="Group 131" transform="translate(140 9444.981)">
      <rect id="Rectangle_132" data-name="Rectangle 132" width="8" height="28" rx="4" transform="translate(15 -0.084)" fill="#fff"/>
      <rect id="Rectangle_133" data-name="Rectangle 133" width="6" height="22" rx="3" transform="translate(7 2.916)" fill="#5eb6e1"/>
      <path id="Rectangle_134" data-name="Rectangle 134" d="M6,0H7A0,0,0,0,1,7,0V12a0,0,0,0,1,0,0H6A6,6,0,0,1,0,6V6A6,6,0,0,1,6,0Z" transform="translate(0 7.916)" fill="#fff"/>
      <rect id="Rectangle_135" data-name="Rectangle 135" width="34" height="12" transform="translate(19 7.916)" fill="#fff"/>
    </g>
  </g>
</svg>
