<svg xmlns="http://www.w3.org/2000/svg" width="32" height="31" viewBox="0 0 32 31">
  <g id="Group_76" data-name="Group 76" transform="translate(-406 -8909)">
    <rect id="Rectangle_56" data-name="Rectangle 56" width="32" height="31" transform="translate(406 8909)" fill="#5eb6e1"/>
    <path id="Path_36" data-name="Path 36" d="M43.216,15.361a9.523,9.523,0,0,0,9.609-9.609V5.294a7.438,7.438,0,0,0,1.647-1.739A7.6,7.6,0,0,1,52.55,4.1a3.56,3.56,0,0,0,1.464-1.83,8.394,8.394,0,0,1-2.1.824A3.268,3.268,0,0,0,49.439,2a3.438,3.438,0,0,0-3.386,3.386,1.784,1.784,0,0,0,.092.732A9.461,9.461,0,0,1,39.19,2.549a3.5,3.5,0,0,0-.458,1.739A3.636,3.636,0,0,0,40.2,7.125a3.085,3.085,0,0,1-1.556-.458h0a3.344,3.344,0,0,0,2.745,3.294,2.821,2.821,0,0,1-.915.092,1.557,1.557,0,0,1-.641-.092,3.467,3.467,0,0,0,3.2,2.379,6.909,6.909,0,0,1-4.21,1.464A2.534,2.534,0,0,1,38,13.714a8.638,8.638,0,0,0,5.216,1.647" transform="translate(376 8916)" fill="#fff" fill-rule="evenodd"/>
  </g>
</svg>
