<svg xmlns="http://www.w3.org/2000/svg" width="25.5" height="20.71" viewBox="0 0 25.5 20.71">
  <path id="twitter" d="M22.879,53.243c.016.227.016.453.016.68A14.768,14.768,0,0,1,8.025,68.792,14.769,14.769,0,0,1,0,66.446a10.812,10.812,0,0,0,1.262.065A10.466,10.466,0,0,0,7.75,64.278a5.235,5.235,0,0,1-4.886-3.624,6.59,6.59,0,0,0,.987.081,5.528,5.528,0,0,0,1.375-.178,5.227,5.227,0,0,1-4.191-5.129v-.065a5.263,5.263,0,0,0,2.362.663,5.234,5.234,0,0,1-1.618-6.99,14.855,14.855,0,0,0,10.776,5.469,5.9,5.9,0,0,1-.129-1.2,5.231,5.231,0,0,1,9.045-3.576,10.289,10.289,0,0,0,3.317-1.262,5.212,5.212,0,0,1-2.3,2.88,10.477,10.477,0,0,0,3.009-.809,11.234,11.234,0,0,1-2.621,2.7Z" transform="translate(0 -48.082)" fill="#5eb6e1"/>
</svg>
